<?xml version="1.0" encoding="utf-8"?>
<!-- Generator: Adobe Illustrator 25.4.1, SVG Export Plug-In . SVG Version: 6.00 Build 0)  -->
<svg version="1.1" id="Capa_1" xmlns="http://www.w3.org/2000/svg" xmlns:xlink="http://www.w3.org/1999/xlink" x="0px" y="0px"
	 viewBox="0 0 63.2 62.4" style="enable-background:new 0 0 63.2 62.4;" xml:space="preserve">
<path d="M23.7,8.3l0.8,1l-1.1,0.9l-0.8-1L23.7,8.3z"/>
<path d="M27.3,27.5v-3.2c0-0.2-0.2-0.4-0.4-0.4s-0.4,0.2-0.4,0.4v3.2c0,0.2,0.2,0.4,0.4,0.4S27.3,27.7,27.3,27.5z"/>
<path d="M29.6,29.1c-0.2,0.2-1.1,1.3-2.6,1.3c-1.7,0-2.8-1.2-2.9-1.3c-0.2-0.2-0.4-0.2-0.6-0.1c-0.2,0.2-0.2,0.4-0.1,0.6
	c0.2,0.3,1.4,1.6,3.4,1.6c0,0,0.1,0,0.1,0c1.9-0.1,3-1.3,3.3-1.6c0.2-0.2,0.1-0.5-0.1-0.6C30.1,28.9,29.8,28.9,29.6,29.1L29.6,29.1z
	"/>
<path d="M36.7,23.9c0.2,0,0.4-0.2,0.4-0.5c0-0.2-0.2-0.4-0.5-0.4c-3,0.2-4.1-5.6-4.1-5.7c0-0.2-0.2-0.4-0.4-0.4h0
	c-0.2,0-0.4,0.2-0.4,0.4c-1,6.5-14.4,5.6-14.5,5.6c-0.2,0-0.4,0.2-0.5,0.4c0,0.2,0.2,0.4,0.4,0.5c0.1,0,0.8,0.1,1.8,0.1
	c3.5,0,11.1-0.5,13.2-4.9C32.7,21,34.1,24,36.7,23.9L36.7,23.9z"/>
<path d="M52.6,22.5c-0.9-0.5-2-0.5-2.9,0c-6.6,3.9-5.6,14.7-5.5,15.2c0,0,0,0,0,0.1c0,0,0,0.1,0,0.1c0,0,0,0.1,0,0.1c0,0,0,0,0,0
	c0,0,0,0,0,0c0,0,0.1,0,0.1,0.1c0,0,0,0,0,0c0,0,0.1,0,0.1,0c0,0,0,0,0.1,0h0h3v4.1c0,0.2,0.2,0.4,0.4,0.4h0.8v13.7l-6.3-13.6
	c-0.9-2-3-3.3-5.2-3.3h-6.8v-4.5h3c1.1,0,2.1-0.3,3-0.8c0.3,0.9,0.8,1.7,1.5,2.4c1.1,1.1,2.7,1.3,3.9,1.3c0.9,0,1.5-0.1,1.5-0.1
	c0.2,0,0.3-0.2,0.3-0.3c0-0.1,0.7-3.6-1.2-5.4c-0.9-0.9-2.1-1.6-3.2-1.7c0.1-0.4,0.2-0.9,0.2-1.4v-2.9c3.9-1.1,6-2.6,6-4.3v-2.8
	c0-2-2.9-3.7-8-4.8v-2.5c0-3.8-3.1-6.9-6.9-6.9l-7.6,0c-3.8,0-6.9,3.1-6.9,6.9v2.5c-5.1,1.1-8,2.8-8,4.8v2.8c0,1.7,2.1,3.3,6,4.3
	v2.9c0,0.5,0.1,0.9,0.2,1.4c-1.1,0.2-2.2,0.8-3.2,1.7c-1.8,1.8-1.2,5.3-1.2,5.4c0,0.2,0.2,0.3,0.3,0.3c0.1,0,0.7,0.1,1.5,0.1
	c1.2,0,2.8-0.2,3.9-1.3c0.7-0.7,1.2-1.6,1.5-2.4c0.9,0.5,1.9,0.8,3,0.8h3v4.5l-6.8,0c-3.6,0-6.6,2.9-6.6,6.6v12.4
	c0,0.2,0.2,0.4,0.4,0.4H53c0.2,0,0.4-0.2,0.4-0.4V42.5h0.8c0.2,0,0.4-0.2,0.4-0.4V38h3c0.1,0,0.1,0,0.2,0c0,0,0,0,0,0
	c0,0,0.1,0,0.1-0.1c0,0,0,0,0,0c0,0,0,0,0,0c0,0,0-0.1,0-0.1c0,0,0,0,0-0.1c0,0,0,0,0,0C58.1,37.2,59.1,26.3,52.6,22.5L52.6,22.5z
	 M16.1,53.2h-5.3v-7.3c0-3,2.3-5.5,5.3-5.7V53.2z M19.9,10.3l1.4-1.2l-1.2-1.4C20,7.5,20,7.3,20.2,7.1c0.2-0.2,0.5-0.1,0.6,0.1
	L22,8.5l1.1-0.9l-0.7-0.8c-0.2-0.2-0.1-0.5,0.1-0.6C22.6,6,22.9,6,23.1,6.2L23.8,7l0.6-0.5c0.2-0.2,0.5-0.1,0.6,0.1
	c0.2,0.2,0.1,0.5-0.1,0.6l-0.6,0.5l0.8,1l1.4-1.2c0.2-0.2,0.5-0.1,0.6,0.1c0.2,0.2,0.1,0.5-0.1,0.6l-1.4,1.2l1.2,1.4
	c0.2,0.2,0.1,0.5-0.1,0.6c-0.1,0.1-0.2,0.1-0.3,0.1c-0.1,0-0.2-0.1-0.3-0.2L25,9.9l-1.1,0.9l0.7,0.8c0.2,0.2,0.1,0.5-0.1,0.6
	c-0.1,0.1-0.2,0.1-0.3,0.1c-0.1,0-0.2-0.1-0.3-0.2l-0.7-0.8l-0.6,0.5C22.6,12,22.5,12,22.4,12c-0.1,0-0.2-0.1-0.3-0.2
	c-0.2-0.2-0.1-0.5,0.1-0.6l0.6-0.5l-0.8-1L20.4,11c-0.1,0.1-0.2,0.1-0.3,0.1c-0.1,0-0.2-0.1-0.3-0.2C19.7,10.7,19.7,10.5,19.9,10.3z
	 M39.5,25v-6.9c2.2,0.6,3.8,1.4,4.6,2.3c0.3,0.4,0.5,0.7,0.5,1.1C44.7,22.8,42.7,24,39.5,25L39.5,25z M14.3,25
	C11,24,9.1,22.8,9.1,21.5c0-0.4,0.2-0.7,0.5-1.1c0.8-0.9,2.4-1.7,4.6-2.3L14.3,25z M20.4,34c-1.1,0-2.1-0.3-3-1
	c-0.9-0.6-1.6-1.6-2-2.6c-0.2-0.5-0.3-1.1-0.3-1.6V17.9c3.2-0.8,7.4-1.3,11.8-1.3c4.4,0,8.5,0.5,11.7,1.3v10.9
	c0,0.6-0.1,1.1-0.3,1.6c-0.3,1.1-1,2-2,2.6c-0.9,0.6-1.9,0.9-3,0.9L20.4,34z M26.9,39.2l-2.7-1.9v-2.5h5.3v2.5L26.9,39.2z
	 M23.4,40.2v3.7c0,0.2,0.1,0.4,0.3,0.4c0,0,0.1,0,0.1,0c0.1,0,0.3-0.1,0.4-0.2l2.3-3.1v7.1c0,0.2,0.2,0.4,0.4,0.4s0.4-0.2,0.4-0.4
	V41l2.3,2.8c0.1,0.1,0.3,0.2,0.5,0.1c0.2-0.1,0.3-0.2,0.3-0.4v-3.4h2.8l-3.4,9h-5.9l-3.4-9L23.4,40.2z M17,43.8l2,5.4h-2V43.8z
	 M36.8,49.2h-2l2-5.4V49.2z M37.7,40.2c1.7,0.2,3.3,1.2,4,2.8l2.3,5l-4.8,4.8l-1.5-3.1L37.7,40.2z M37.7,57.8v-6.1l2.9,6L37.7,57.8z
	 M52.5,57.8h-2.8V42.5h2.8V57.8z M53.8,41.7h-5.4V38h5.4V41.7z M54.2,37.1h-8.4c1.8-1.3,6.1-3.4,10.6,0H54.2z"/>
</svg>
