<?xml version="1.0" encoding="utf-8"?>
<!-- Generator: Adobe Illustrator 25.4.1, SVG Export Plug-In . SVG Version: 6.00 Build 0)  -->
<svg version="1.1" id="Capa_1" xmlns="http://www.w3.org/2000/svg" xmlns:xlink="http://www.w3.org/1999/xlink" x="0px" y="0px"
	 viewBox="0 0 63.2 62.4" style="enable-background:new 0 0 63.2 62.4;" xml:space="preserve">
<path d="M54,55.6l-5.5-13.3c-1.1-2.7-3.6-4.5-6.5-4.6v0h-9v-3.3h1.9c2.8,0,5.1-2.3,5.1-5.1v-2.6h0.5c2,0,3.6-1.6,3.6-3.6
	s-1.6-3.6-3.6-3.6H40v-2.4l1.7-2.1c1.6-1.2,2.6-3.1,2.6-5.1V9c0-4-1.9-6.4-5.1-6.4H21.1c-0.9,0-1.8,0.3-2.6,0.9
	c-1.7,1.1-2.7,3.1-2.7,5.2v6.4c0,2.7,1.3,3.9,2.4,4.4c-1.9,0.1-3.3,1.7-3.3,3.5c0,2,1.6,3.6,3.6,3.6h0.5v2.6c0,2.8,2.3,5.1,5.1,5.1
	h1.9v3.3l-4.4,0h-4.6v0c-4.6,0.2-8.3,4.1-8.3,8.8v13.3h49.3 M16.8,58.8H9.5V46.4c0-4.2,3.3-7.6,7.4-7.8V58.8z M26,26
	c0.2-0.2,0.5-0.2,0.7-0.1l0.2,0.1c1.6,1.2,3.8,1.2,5.3-0.1c0.2-0.2,0.5-0.2,0.7,0c0.2,0.2,0.2,0.5,0,0.6c-1,0.8-2.2,1.3-3.4,1.3
	c-1.1,0-2.3-0.4-3.2-1.1l-0.2-0.1C25.9,26.5,25.8,26.2,26,26L26,26z M32,38.6v9.8h-5.2v-9.8H32z M26.8,37.6v-3.3H32v3.3H26.8z
	 M35.1,50.6c0,0.3-0.2,0.5-0.5,0.5c-0.3,0-0.5-0.2-0.5-0.5V48c0-0.3,0.2-0.5,0.5-0.5s0.5,0.2,0.5,0.5V50.6z M24.6,50.6
	c0,0.3-0.2,0.5-0.5,0.5s-0.5-0.2-0.5-0.5V48c0-0.3,0.2-0.5,0.5-0.5s0.5,0.2,0.5,0.5V50.6z M39,18.4v1.3h0v2.5l-3,3
	c-4.4-3.4-8.9-3.4-13.3,0l-2.9-3v-2.4c0.8-3.2,2.9-5.3,3.7-6c1.1,1,2.4,1.5,3.9,1.5c2,0,3.7-1,4.5-1.5c0.8,1.2,2.1,1.8,3.9,1.8
	c1.3,0,2.5-0.3,3.2-0.5L39,18.4L39,18.4z M17.8,38.6h3.7v9.8h-3.7L17.8,38.6L17.8,38.6z M41.1,46.9v1.5h-3.7l0-9.8H41L41.1,46.9z
	 M42,58.8v-9.5l3.9,9.5L42,58.8L42,58.8z M54,58.8h-7l-4.9-12v-8.2c2.5,0.2,4.7,1.7,5.6,4.1L54,58V58.8z"/>
<path d="M23.4,18.7c-0.2,0.1-0.3,0.4-0.2,0.6c0.1,0.2,0.3,0.3,0.4,0.3c0.1,0,0.1,0,0.2,0c0,0,2.3-1,3.7,0c0.2,0.1,0.5,0.1,0.7-0.1
	c0.1-0.2,0.1-0.5-0.1-0.7C26.2,17.5,23.5,18.7,23.4,18.7z"/>
<path d="M35.4,18.7c-0.1-0.1-2.8-1.2-4.6,0c-0.2,0.1-0.3,0.4-0.1,0.7c0.1,0.1,0.2,0.2,0.4,0.2c0.1,0,0.2,0,0.3-0.1
	c1.4-0.9,3.7,0,3.7,0c0.2,0.1,0.5,0,0.6-0.2C35.8,19.1,35.7,18.8,35.4,18.7L35.4,18.7z"/>
</svg>
