<?xml version="1.0" encoding="utf-8"?>
<!-- Generator: Adobe Illustrator 25.4.1, SVG Export Plug-In . SVG Version: 6.00 Build 0)  -->
<svg version="1.1" id="Capa_1" xmlns="http://www.w3.org/2000/svg" xmlns:xlink="http://www.w3.org/1999/xlink" x="0px" y="0px"
	 viewBox="0 0 100 98.8" style="enable-background:new 0 0 100 98.8;" xml:space="preserve">
<style type="text/css">
	.st0{fill:none;}
</style>
<g>
	<g>
		<path class="st0" d="M71.8,59c-0.2,0.1-0.3,0.1-0.5,0.2C71.5,59.1,71.6,59,71.8,59z"/>
	</g>
</g>
<g>
	<path d="M50,92.7c-5.5,0-10.9-2.6-16-5.2c-4.9-2.4-9.6-4.7-14-4.7H10v-5h10c5.6,0,11,2.7,16.2,5.2c4.9,2.4,9.5,4.7,13.8,4.7
		c4.3,0,8.9-2.3,13.7-4.7c5.2-2.6,10.6-5.3,16.3-5.3c0,0,0,0,0.1,0h10v5H80c0,0,0,0,0,0c-4.5,0-9.1,2.3-14.1,4.8
		C60.8,90,55.5,92.7,50,92.7z"/>
</g>
<g>
	<path d="M30.9,70.2c-1.6-0.7-3.2-1.3-4.8-1.7c-1.7-0.4-3.6-0.6-5.6-0.7H10v5h11c4.4,0,9.4,1.7,14,4.1c2.7,1.4,7.8,4.5,7.8,4.5
		C40,76.9,36.1,72.7,30.9,70.2z"/>
</g>
<g>
	<path d="M57.2,81.4c0,0,5-3.1,7.8-4.5c4.6-2.4,9.7-4.1,14-4.1h11v-5H79.5c-2,0-3.8,0.3-5.6,0.7c-1.6,0.4-3.3,1-4.8,1.7
		C63.9,72.7,60,76.9,57.2,81.4z"/>
</g>
<path d="M83,39.6c0-18-14.6-32.5-32.5-32.5S18,21.7,18,39.6C18,56.7,31.2,70.7,48,72v11.2h5V72C69.8,70.7,83,56.7,83,39.6z M72,41.8
	l-6.6,6.5H72v4H61.3l-8.8,8.8v10.4l0,0c-1.3,0.1-2.6,0.1-3.9,0l0,0V61.1l-8.9-8.8H29v-4h6.6L29,41.8v-5.7l9.4,9.4v-9.4h4v13.4l6,6
	V36.1h4v19.3l6-6V36.1h4v9.4l9.4-9.4V41.8z"/>
</svg>
