<?xml version="1.0" encoding="utf-8"?>
<!-- Generator: Adobe Illustrator 25.4.1, SVG Export Plug-In . SVG Version: 6.00 Build 0)  -->
<svg version="1.1" id="Capa_1" xmlns="http://www.w3.org/2000/svg" xmlns:xlink="http://www.w3.org/1999/xlink" x="0px" y="0px"
	 viewBox="0 0 63.2 62.4" style="enable-background:new 0 0 63.2 62.4;" xml:space="preserve">
<g>
	<path d="M56.9,19.3h0.6v1.8h-0.6V19.3z"/>
	<path d="M60.5,13.1C60.5,13.1,60.5,13,60.5,13.1C60.5,13,60.5,13,60.5,13.1l-7.4-6.5c-0.1-0.1-0.2-0.1-0.3-0.1l-6.5,0
		c-0.1,0-0.1,0-0.1,0c0,0,0,0,0,0c0,0-0.1,0-0.1,0.1c0,0,0,0,0,0L38.7,13c-0.1,0.1-0.2,0.2-0.2,0.3v10.5H27.1c0,0,0-0.1,0-0.2v-3.5
		c0.7-0.1,2.2-0.4,3-1.8c1.3-2.3,0.3-6.3-3-11.9c-0.1-0.1-0.2-0.2-0.4-0.2s-0.3,0.1-0.4,0.2c-3.3,5.6-4.3,9.6-3,11.9
		c0.8,1.4,2.2,1.7,3,1.8v3.5c0,0.1,0,0.1,0,0.2h-7.8c0,0,0-0.1,0-0.2v-3.5c0.7-0.1,2.2-0.4,3-1.8c1.3-2.3,0.3-6.3-3-11.9
		c-0.1-0.1-0.2-0.2-0.4-0.2s-0.3,0.1-0.4,0.2c-3.3,5.6-4.3,9.6-3,11.9c0.8,1.4,2.2,1.7,3,1.8v3.5c0,0.1,0,0.1,0,0.2l-7.4,0
		c0,0,0-0.1,0-0.2v-3.5c0.7-0.1,2.2-0.4,3-1.8c1.3-2.3,0.3-6.3-3-11.9c-0.2-0.3-0.6-0.3-0.8,0C6,12.1,5,16.1,6.3,18.3
		c0.8,1.4,2.2,1.7,3,1.8v3.5c0,0.1,0,0.1,0,0.2h-6c-0.3,0-0.5,0.2-0.5,0.5v29c0,0.3,0.2,0.5,0.5,0.5h56.9c0.3,0,0.5-0.2,0.5-0.5
		V33.9v0v0v-9.6l0-10.9c0,0,0,0,0-0.1C60.7,13.2,60.6,13.1,60.5,13.1L60.5,13.1z M52.7,7.3l6.3,5.6h-5.1l-1.3-1.2h3.9
		c0.3,0,0.5-0.2,0.5-0.5c0-0.3-0.2-0.5-0.5-0.5h-4.9c0,0,0,0,0,0l-1.9-1.7h3.7c0.3,0,0.5-0.2,0.5-0.5s-0.2-0.5-0.5-0.5h-4.7l-1-0.9
		L52.7,7.3z M58.4,21.6c0,0.3-0.2,0.5-0.5,0.5h-1.5c-0.3,0-0.5-0.2-0.5-0.5v-2.7c0-0.3,0.2-0.5,0.5-0.5h1.5c0.3,0,0.5,0.2,0.5,0.5
		V21.6z M39.5,13.6l6.9-6.1l3.5,3.1l3.4,3v10.3h-3.1v-5c0-0.3-0.2-0.5-0.5-0.5H43c-0.3,0-0.5,0.2-0.5,0.5v5h-3.1L39.5,13.6z
		 M17.5,14.6v4.6c-0.6-0.1-1.6-0.3-2.2-1.3c-0.7-1.3-0.9-4.2,2.6-10.3c3.5,6.1,3.4,9,2.6,10.3c-0.6,1-1.6,1.3-2.2,1.3v-4.6
		c0-0.3-0.2-0.5-0.5-0.5C17.7,14.2,17.5,14.4,17.5,14.6L17.5,14.6z M3.8,31.1h18.1c1.4,0,2.8,0.6,3.8,1.6l8,8l-2.1,2.1l-8-8
		c-1.2-1.2-2.8-1.8-4.4-1.8H3.8L3.8,31.1z M3.8,52.8V42.3c0-1.4,1.1-2.5,2.5-2.5c1.2,0,2.2,0.9,2.5,2.1c0,0.2,0.2,0.3,0.3,0.4
		c0.6,0.2,1.1,0.6,1.3,1.1c0.1,0.1,0.2,0.2,0.3,0.3s0.3,0,0.4-0.1c0.2-0.2,0.6-0.4,1.1-0.4c1,0,1.8,0.8,1.8,1.8
		c0,0.3,0.2,0.5,0.5,0.5c0.3,0,0.5-0.2,0.5-0.5c0-1.5-1.2-2.7-2.7-2.7c-0.5,0-0.9,0.1-1.3,0.3c-0.3-0.5-0.8-0.8-1.4-1.1
		c-0.4-1.5-1.7-2.5-3.3-2.5c-1,0-1.9,0.4-2.5,1.1v-3.5h12.6c1.4,0,2.8,0.6,3.8,1.6l8,8l-6.7,6.7L3.8,52.8z M22.7,52.8l13.7-13.7
		c1-1,2.4-1.6,3.8-1.6h9c-0.4,0.3-0.8,0.6-1.2,0.9L33.6,52.8L22.7,52.8z M59.8,43.1c-1.5,0.1-2.9,0.8-4,1.8l-7.9,7.9H42l10.5-10.5
		c1-1,2.4-1.6,3.8-1.6h3.5L59.8,43.1L59.8,43.1z M59.8,26.8h-7c-0.3,0-0.5,0.2-0.5,0.5c0,0.3,0.2,0.5,0.5,0.5h7v2.4H48.2
		c-0.3,0-0.5,0.2-0.5,0.5c0,0.3,0.2,0.5,0.5,0.5h11.6v2.4H44.5c-0.3,0-0.5,0.2-0.5,0.5s0.2,0.5,0.5,0.5h15.2v2.4H40.2
		c-1.1,0-2.1,0.3-3,0.8L29,29.3c-1.2-1.2-2.8-1.8-4.4-1.8H3.8v-2.7H39c0,0,0,0,0,0h20.8L59.8,26.8z"/>
	<path d="M46.4,15.7c1.3,0,2.3-1,2.3-2.3s-1-2.3-2.3-2.3s-2.3,1-2.3,2.3C44.1,14.6,45.1,15.7,46.4,15.7z"/>
	<path d="M38.2,28.2c-0.2-0.1-0.5,0-0.6,0.2l-0.6,1L36.8,29c-0.1-0.2-0.4-0.3-0.6-0.2c-0.2,0.1-0.3,0.4-0.2,0.6l0.6,1.1
		c0.1,0.1,0.2,0.2,0.4,0.2h0c0.2,0,0.3-0.1,0.4-0.2l0.9-1.7C38.5,28.6,38.4,28.3,38.2,28.2L38.2,28.2z"/>
	<path d="M38,43.2c-0.2-0.1-0.5,0-0.6,0.2l-0.6,1L36.6,44c-0.1-0.2-0.4-0.3-0.6-0.2c-0.2,0.1-0.3,0.4-0.2,0.6l0.6,1.1
		c0.1,0.1,0.2,0.2,0.4,0.2h0c0.2,0,0.3-0.1,0.4-0.2l0.9-1.7C38.3,43.6,38.2,43.4,38,43.2L38,43.2z"/>
	<path d="M32.6,48.4c-0.2-0.1-0.5,0-0.6,0.2l-0.6,1l-0.2-0.4c-0.1-0.2-0.4-0.3-0.6-0.2c-0.2,0.1-0.3,0.4-0.2,0.6l0.6,1.1
		c0.1,0.1,0.2,0.2,0.4,0.2h0c0.2,0,0.3-0.1,0.4-0.2l0.9-1.7C32.8,48.8,32.8,48.6,32.6,48.4L32.6,48.4z"/>
	<path d="M10.8,46.4c-0.2-0.1-0.5,0-0.6,0.2l-0.6,1l-0.2-0.4C9.2,47,8.9,46.9,8.7,47c-0.2,0.1-0.3,0.4-0.2,0.6l0.6,1.1
		c0.1,0.1,0.2,0.2,0.4,0.2h0c0.2,0,0.3-0.1,0.4-0.2l0.9-1.7C11.1,46.8,11,46.5,10.8,46.4L10.8,46.4z"/>
	<path d="M20.6,44.9c-0.2-0.1-0.5,0-0.6,0.2l-0.6,1l-0.2-0.4c-0.1-0.2-0.4-0.3-0.6-0.2c-0.2,0.1-0.3,0.4-0.2,0.6l0.6,1.1
		c0.1,0.1,0.2,0.2,0.4,0.2h0c0.2,0,0.3-0.1,0.4-0.2l0.9-1.7C20.9,45.3,20.8,45,20.6,44.9L20.6,44.9z"/>
	<path d="M48,26.1c-0.2-0.1-0.5,0-0.6,0.2l-0.6,1l-0.2-0.4c-0.1-0.2-0.4-0.3-0.6-0.2c-0.2,0.1-0.3,0.4-0.2,0.6l0.6,1.1
		c0.1,0.1,0.2,0.2,0.4,0.2h0c0.2,0,0.3-0.1,0.4-0.2l0.9-1.7C48.3,26.5,48.3,26.2,48,26.1L48,26.1z"/>
	<path d="M51,17c0-0.3-0.2-0.5-0.5-0.5h-8.8c-0.3,0-0.5,0.2-0.5,0.5c0,0.3,0.2,0.5,0.5,0.5h8.8C50.8,17.4,51,17.2,51,17z"/>
</g>
</svg>
