<?xml version="1.0" encoding="utf-8"?>
<!-- Generator: Adobe Illustrator 25.4.1, SVG Export Plug-In . SVG Version: 6.00 Build 0)  -->
<svg version="1.1" id="Capa_1" xmlns="http://www.w3.org/2000/svg" xmlns:xlink="http://www.w3.org/1999/xlink" x="0px" y="0px"
	 viewBox="0 0 63.2 62.4" style="enable-background:new 0 0 63.2 62.4;" xml:space="preserve">
<path d="M55.4,33c-0.6-0.6-1.4-0.9-2.3-0.9c-0.7,0-1.4,0.2-2,0.7l-0.9,0.7c-0.1-0.2-0.2-0.3-0.4-0.5c-0.6-0.6-1.4-0.9-2.3-0.9
	c-0.7,0-1.4,0.2-2,0.7l-1.8,1.4c-0.2-0.4-0.4-0.8-0.7-1.2c-1.1-1.1-2.9-1.2-4.2-0.3L33.6,37c-0.5-0.4-1.1-0.6-1.8-0.6h-3.3
	c-0.6,0-1.2-0.3-1.7-0.7c-1.1-1.2-2.6-1.8-4.2-1.8c-1.1,0-2.2,0.3-3.1,0.9L16,37l-1-2L5.5,40l9.2,17.6l9.5-4.9l-1.3-2.4l3.6-2h15.3
	l13.3-10.3c0.8-0.6,1.2-1.5,1.2-2.5C56.3,34.4,56,33.6,55.4,33L55.4,33z M54.1,36.5l-12.9,10l-15.1,0l-4,2.2l-5.3-10.3l3.7-2.4
	c0.6-0.4,1.4-0.6,2.2-0.6c1.1,0,2.2,0.5,3,1.3c0.7,0.8,1.8,1.2,2.9,1.2h3.3c0.4,0,0.8,0.2,1.1,0.6c0.2,0.2,0.2,0.5,0.2,0.7
	c0,0.3-0.1,0.7-0.4,0.9c-0.2,0.2-0.6,0.4-0.9,0.4l-2.5,0h-2.1v1.6h14.6L52.2,34c0.6-0.5,1.5-0.4,2.1,0.1c0.3,0.3,0.5,0.7,0.5,1.1
	C54.7,35.7,54.5,36.2,54.1,36.5L54.1,36.5z"/>
<g>
	<path d="M34.3,28c11.5,0.4,20.3-8,19.6-20.8c-12.7-0.5-23.7,10-21.4,20.3c1.9-2.4,3.6-4.9,5.7-7c2.1-2.1,4.5-3.9,6.8-5.8
		c-2.2,1.9-3.9,4-5.6,6.3C37.8,23.2,36.1,25.5,34.3,28z"/>
	<path d="M29.9,26.9C32,17.6,23.1,7.3,9.5,7.3C8.3,18,16,28.7,28.1,27.3c-3.3-3.9-6.7-7.9-10-11.8c0.2-0.2,0.4-0.3,0.5-0.5
		C22.4,19,26.2,23.1,29.9,26.9z"/>
</g>
</svg>
